<svg width="20" height="20" viewBox="0 0 20 20" fill="none" xmlns="http://www.w3.org/2000/svg">
<path d="M10.09 12.28C11.35 12.28 12.37 11.26 12.37 10.00C12.37 8.73 11.35 7.71 10.09 7.71C8.83 7.71 7.80 8.73 7.80 10.00C7.80 11.26 8.83 12.28 10.09 12.28Z" stroke="#96A7BB" stroke-width="1" stroke-linecap="round" stroke-linejoin="round"/>
<path d="M15.73 12.28C15.62 12.51 15.59 12.77 15.64 13.01C15.68 13.26 15.80 13.49 15.98 13.67L16.02 13.71C16.16 13.85 16.28 14.02 16.35 14.21C16.43 14.39 16.47 14.59 16.47 14.79C16.47 14.99 16.43 15.19 16.35 15.37C16.28 15.56 16.16 15.73 16.02 15.87C15.88 16.01 15.71 16.12 15.53 16.20C15.34 16.28 15.14 16.32 14.94 16.32C14.74 16.32 14.55 16.28 14.36 16.20C14.18 16.12 14.01 16.01 13.87 15.87L13.82 15.82C13.64 15.65 13.41 15.53 13.17 15.49C12.92 15.44 12.66 15.47 12.43 15.57C12.21 15.67 12.02 15.83 11.88 16.03C11.75 16.24 11.67 16.48 11.67 16.72V16.85C11.67 17.26 11.51 17.64 11.23 17.93C10.94 18.22 10.55 18.38 10.15 18.38C9.74 18.38 9.36 18.22 9.07 17.93C8.79 17.64 8.62 17.26 8.62 16.85V16.78C8.62 16.53 8.54 16.29 8.39 16.08C8.24 15.88 8.04 15.72 7.80 15.63C7.57 15.53 7.32 15.50 7.07 15.55C6.82 15.59 6.59 15.71 6.42 15.88L6.37 15.93C6.23 16.07 6.06 16.18 5.87 16.26C5.69 16.34 5.49 16.38 5.29 16.38C5.09 16.38 4.89 16.34 4.71 16.26C4.52 16.18 4.35 16.07 4.21 15.93C4.07 15.79 3.96 15.62 3.88 15.44C3.81 15.25 3.77 15.05 3.77 14.85C3.77 14.65 3.81 14.45 3.88 14.27C3.96 14.08 4.07 13.92 4.21 13.77L4.26 13.73C4.43 13.55 4.55 13.32 4.60 13.07C4.64 12.83 4.61 12.57 4.51 12.34C4.41 12.12 4.25 11.92 4.05 11.79C3.84 11.65 3.61 11.58 3.36 11.58H3.23C2.83 11.58 2.44 11.42 2.15 11.13C1.87 10.85 1.71 10.46 1.71 10.06C1.71 9.65 1.87 9.26 2.15 8.98C2.44 8.69 2.83 8.53 3.23 8.53H3.30C3.55 8.53 3.80 8.44 4.00 8.30C4.21 8.15 4.36 7.95 4.45 7.71C4.55 7.48 4.58 7.22 4.54 6.98C4.49 6.73 4.37 6.50 4.20 6.32L4.15 6.28C4.01 6.14 3.90 5.97 3.82 5.78C3.74 5.60 3.71 5.40 3.71 5.20C3.71 5.00 3.74 4.80 3.82 4.62C3.90 4.43 4.01 4.26 4.15 4.12C4.29 3.98 4.46 3.87 4.65 3.79C4.83 3.71 5.03 3.67 5.23 3.67C5.43 3.67 5.63 3.71 5.81 3.79C6.00 3.87 6.17 3.98 6.31 4.12L6.35 4.17C6.53 4.34 6.76 4.46 7.01 4.50C7.26 4.55 7.51 4.52 7.74 4.42H7.80C8.03 4.32 8.22 4.16 8.35 3.96C8.49 3.75 8.56 3.51 8.56 3.27V3.14C8.56 2.73 8.72 2.35 9.01 2.06C9.30 1.77 9.68 1.61 10.09 1.61C10.49 1.61 10.88 1.77 11.17 2.06C11.45 2.35 11.61 2.73 11.61 3.14V3.21C11.61 3.45 11.68 3.69 11.82 3.90C11.96 4.10 12.15 4.26 12.37 4.36C12.60 4.46 12.86 4.49 13.11 4.44C13.35 4.40 13.58 4.28 13.76 4.11L13.81 4.06C13.95 3.92 14.12 3.81 14.30 3.73C14.49 3.65 14.68 3.61 14.88 3.61C15.08 3.61 15.28 3.65 15.47 3.73C15.65 3.81 15.82 3.92 15.96 4.06C16.10 4.20 16.22 4.37 16.29 4.55C16.37 4.74 16.41 4.94 16.41 5.14C16.41 5.34 16.37 5.54 16.29 5.72C16.22 5.91 16.10 6.07 15.96 6.22L15.92 6.26C15.74 6.44 15.62 6.67 15.58 6.92C15.53 7.16 15.56 7.42 15.66 7.65V7.71C15.76 7.93 15.92 8.13 16.13 8.26C16.33 8.40 16.57 8.47 16.82 8.47H16.94C17.35 8.47 17.74 8.63 18.02 8.92C18.31 9.20 18.47 9.59 18.47 10.00C18.47 10.40 18.31 10.79 18.02 11.07C17.74 11.36 17.35 11.52 16.94 11.52H16.88C16.63 11.52 16.39 11.59 16.19 11.73C15.98 11.86 15.82 12.06 15.73 12.28V12.28Z" stroke="#96A7BB" stroke-width="1" stroke-linecap="round" stroke-linejoin="round"/>
</svg>
